<?xml version="1.0" encoding="UTF-8" standalone="no"?>


<svg
   xmlns:dc="http://purl.org/dc/elements/1.1/"
   xmlns:cc="http://creativecommons.org/ns#"
   xmlns:rdf="http://www.w3.org/1999/02/22-rdf-syntax-ns#"
   xmlns:svg="http://www.w3.org/2000/svg"
   xmlns="http://www.w3.org/2000/svg"
   xmlns:xlink="http://www.w3.org/1999/xlink"
   xmlns:sodipodi="http://sodipodi.sourceforge.net/DTD/sodipodi-0.dtd"
   xmlns:inkscape="http://www.inkscape.org/namespaces/inkscape"
   viewBox="0 0 1365.3333 1280"
   version="1.1"
   >
  <g
     style="display:inline">
    <path
       style="fill:#41d27a;fill-opacity:1;stroke:#000000;stroke-width:4;stroke-linecap:butt;stroke-linejoin:miter;stroke-miterlimit:4;stroke-dasharray:none;stroke-opacity:1"
       d="m 1112.1022,547.08384 c 2.617,-5.03081 4.912,-5.29162 9.0156,-5.83363 7.6193,0.23618 20.3091,8.17655 17.6776,16.617 -1.3134,3.51397 -31.7332,71.48154 -33.4108,74.06944 -1.6776,2.5879 8.4445,4.05787 12.728,7.07107 4.2835,3.0132 4.0442,10.48308 3.3033,15.43503 -0.7409,4.95195 -4.573,10.02294 -9.7227,12.19759 -5.1497,2.17465 -9.9817,-1.03668 -16.9706,-3.88909 -6.9889,-2.85241 -19.056,-8.71981 -22.8043,-13.78858 -3.7482,-5.06878 37.5669,-96.84802 40.1839,-101.87883 z"
         sodipodi:nodetypes="zcczzzzzzz" />
  </g>
  <g
     style="display:inline">
    <path
       style="display:inline;fill:#41d27a;stroke:#000000;stroke-width:4;stroke-linecap:butt;stroke-linejoin:miter;stroke-miterlimit:4;stroke-dasharray:none;stroke-opacity:1;fill-opacity:1"
       d="m 1048.8448,521.25634 c 9.2223,22.73337 -6.9007,82.64203 -19.6177,99.82869 -19.0193,21.60879 -41.38863,9.25416 -39.91587,-11.16412 1.81916,-25.21902 11.94857,-78.58797 26.46227,-93.02439 12.079,-11.30896 29.5399,-12.92658 33.0713,4.35982 z"
         sodipodi:nodetypes="ccscc" />
    <path
       style="display:inline;fill:none;stroke:#000000;stroke-width:4;stroke-linecap:round;stroke-linejoin:round;stroke-miterlimit:4;stroke-dasharray:none;stroke-opacity:1"
       d="m 1027.5932,544.3105 -11.3499,47.5098 3.8223,0.12381 z"
         sodipodi:nodetypes="cccc" />
  </g>
  <g
     style="display:inline">
    <path
       style="display:inline;fill:#41d27a;stroke:#000000;stroke-width:4;stroke-linecap:butt;stroke-linejoin:miter;stroke-miterlimit:4;stroke-dasharray:none;stroke-opacity:1;fill-opacity:1"
       d="m 1098.5212,538.87379 c 8.0507,23.17424 -11.1071,82.18253 -24.6842,98.69814 -20.0966,20.61053 -41.8068,7.13097 -39.2944,-13.18561 3.1031,-25.09339 15.9416,-77.87619 31.1727,-91.5535 12.6402,-10.67812 30.1609,-11.40299 32.8059,6.04097 z"
         sodipodi:nodetypes="ccscc" />
    <path
       style="display:inline;fill:none;stroke:#000000;stroke-width:4;stroke-linecap:round;stroke-linejoin:round;stroke-miterlimit:4;stroke-dasharray:none;stroke-opacity:1"
       d="m 1076.1213,560.81395 -13.7584,46.86907 3.811,0.31861 z"
       sodipodi:nodetypes="cccc" />
  </g>
  <g
     style="display:inline">
    <path
       style="display:inline;fill:#41d27a;stroke:#000000;stroke-width:3.9987402;stroke-linecap:round;stroke-linejoin:round;stroke-miterlimit:4;stroke-dasharray:none;stroke-opacity:1;fill-opacity:1"
       d="m 976.50249,499.04097 c 2.0221,7.76171 -9.54451,40.62763 -8.12376,43.8199 3.3461,2.18717 6.8714,2.64152 10.77218,1.26549 3.09783,-1.09278 6.93259,-38.56921 9.76139,-41.86204 1.6143,-4.09482 19.6684,0.64278 21.462,4.87071 1.4404,3.4624 -22.1266,105.99869 -25.37449,114.76616 -1.65209,4.45994 -21.05871,1.26518 -20.93688,-4.80301 -0.11968,-5.82967 6.93988,-37.7826 7.40603,-39.76302 -1.20789,-1.69571 -9.18212,-2.82325 -11.36935,-1.99601 -1.04627,2.11047 -5.64977,39.07645 -12.37802,40.20373 -5.12547,1.18264 -9.65496,1.51411 -17.73527,-3.90122 -5.72738,-4.32995 17.20277,-107.90199 24.34082,-116.70123 3.00246,-3.92609 20.01435,0.0639 22.17535,4.10054 z"
      sodipodi:nodetypes="ccsccsccccccc" />
  </g>
  <g
     style="display:inline">
    <path
       style="fill:#41d27a;stroke:#000000;stroke-width:3.77952766;stroke-linecap:butt;stroke-linejoin:miter;stroke-miterlimit:4;stroke-dasharray:none;stroke-opacity:1;fill-opacity:1"
       d="m 935.32549,488.3385 c -10.61317,-1.11635 -23.63055,5.41637 -32.05204,15.55634 -8.42148,10.13998 -14.78798,33.60159 -15.78858,43.49442 -1.0006,9.89283 -2.34119,38.11389 9.95495,52.94463 2.75927,3.32804 5.71362,5.75803 8.17702,7.50264 8.51426,6.02989 18.21564,3.51855 24.31767,1.95323 7.8675,-2.01821 10.91389,-10.59508 11.13622,-16.0473 0.22233,-5.45222 -3.88191,-7.78034 -12.73319,-7.20323 -3.43012,0.22365 -8.17403,-1.61384 -10.36873,-4.20552 -3.46863,-4.09602 -6.13401,-12.46122 -6.68494,-22.00204 -0.56238,-9.73918 2.11431,-32.16806 8.14732,-39.665 3.00502,-3.7342 8.9379,-7.11898 13.40582,-6.98704 4.32652,0.12777 7.37258,4.92945 9.91311,6.3019 10.72196,5.08619 13.27981,-9.88957 10.78338,-16.44024 -2.88822,-7.1642 -7.59484,-14.08644 -18.20801,-15.20279 z"
       sodipodi:nodetypes="zzzssszsssssccz" />
  </g>
  <g
     style="display:inline">
    <path
       style="fill:#41d27a;stroke:#000000;stroke-width:3.77952766;stroke-linecap:butt;stroke-linejoin:miter;stroke-miterlimit:4;stroke-dasharray:none;stroke-opacity:1;fill-opacity:1"
       d="m 861.08817,511.03546 c -3.42691,27.14427 23.0106,36.56943 23.183,57.80626 0.35712,8.63086 -11.64199,15.26671 -16.38697,4.87774 -1.54922,-3.46101 -3.1044,-7.32803 -5.82852,-8.3633 -5.64468,-1.55603 -11.19722,-0.0625 -12.78135,5.43167 -3.10084,18.47613 8.93492,34.45916 27.14354,32.63708 11.10168,-1.14198 18.61507,-6.62302 21.56853,-12.27192 3.41472,-6.55986 4.84404,-12.96725 6.24416,-19.93807 1.89789,-10.67589 -0.99829,-21.01632 -8.41465,-27.9318 -6.29659,-6.47527 -21.57529,-22.43213 -14.47685,-33.18915 7.09844,-10.75702 12.0567,1.93426 19.29899,5.22226 7.07855,2.08216 13.57524,-1.9246 14.00457,-7.46643 0.28214,-4.3509 -0.8396,-8.24115 -2.23744,-12.49416 -4.04497,-10.11566 -15.92712,-15.83289 -25.61853,-15.92032 -16.90211,0.63818 -23.92676,17.56653 -25.69848,31.60014 z"
       sodipodi:nodetypes="scccccccczccccs" />
  </g>
  <g
     style="display:inline">
    <path
       style="display:inline;fill:#41d27a;stroke:#000000;stroke-width:3.9987402;stroke-linecap:round;stroke-linejoin:round;stroke-miterlimit:4;stroke-dasharray:none;stroke-opacity:1;fill-opacity:1"
       d="m 811.10207,475.06864 c 3.07679,7.40719 -3.83028,41.55756 -1.98142,44.5225 3.61659,1.70306 7.17084,1.66518 10.84366,-0.23743 2.9168,-1.51097 1.52837,-39.1575 3.87423,-42.81011 1.0321,-4.27881 19.56815,-2.0853 21.92954,1.85375 1.90574,3.22975 -7.24469,108.04084 -9.24797,117.17343 -1.01905,4.64564 -20.68104,4.16728 -21.40014,-1.85938 -0.9253,-5.75702 1.64443,-38.37946 1.83202,-40.40533 -1.43093,-1.51224 -9.48447,-1.52539 -11.53617,-0.40342 -0.74414,2.23495 -0.18768,39.48232 -6.69519,41.52986 -4.91249,1.88058 -9.35253,2.83568 -18.10451,-1.40932 -6.27148,-3.49569 2.10486,-109.24443 7.95651,-118.94682 2.43024,-4.30383 19.83061,-2.70646 22.52944,0.99227 z"
       sodipodi:nodetypes="ccsccsccccccc" />
  </g>
  <g
     style="display:inline">
    <path
       style="fill:#41d27a;stroke:#000000;stroke-width:3.9987402;stroke-linecap:square;stroke-linejoin:round;stroke-miterlimit:4;stroke-dasharray:none;stroke-opacity:1;paint-order:normal;fill-opacity:1"
       d="m 780.67516,471.93318 c -7.90775,-3.3474 -31.53402,-4.07122 -37.77072,4.45841 -11.1877,16.70754 -29.51579,84.61901 -5.23125,113.82144 7.11035,8.55027 21.60347,7.30227 33.04668,4.57102 11.2431,-3.54075 17.95204,-18.09353 17.89019,-29.58811 -0.067,-25.71584 -2.09293,-27.79906 -11.04748,-30.73929 -6.59491,-1.78851 -13.94837,-2.45288 -17.18617,0.0282 -3.29035,3.26743 -3.23601,7.14202 -3.3781,11.68612 0.0254,4.58392 8.92151,3.06403 11.60659,8.1616 1.16629,2.55465 -0.20772,10.28094 -3.00375,13.73673 -2.63107,3.25193 -6.14953,1.74169 -8.56109,0.61501 -8.72387,-3.33531 -2.11134,-55.06881 -1.02958,-61.52683 1.12444,-7.4439 3.86917,-11.27824 9.55967,-11.52637 4.1865,-0.18255 6.14379,4.4307 6.91596,9.92888 0.76391,3.91358 11.56356,7.15973 14.58542,0.65368 4.83811,-9.50056 -0.69254,-31.17161 -6.39637,-34.28048 z"
        sodipodi:nodetypes="ccaccccccsccscccc" />
  </g>
  <g
     style="display:inline">
    <path
       style="fill:#41d27a;stroke:#000000;stroke-width:3.9987402;stroke-linecap:round;stroke-linejoin:round;stroke-miterlimit:4;stroke-dasharray:none;stroke-opacity:1;fill-opacity:1"
       d="m 670.51401,473.19117 c 3.80658,7.05996 0.37128,41.73205 2.50913,44.49588 3.76961,1.33046 7.30201,0.93509 10.76471,-1.32747 2.74994,-1.79683 -2.41997,-39.11252 -0.4536,-42.98266 0.59626,-4.36096 19.25896,-4.04394 22.00476,-0.36253 2.22109,3.02157 3.66471,108.22144 2.59065,117.50926 -0.54636,4.72461 -20.15668,6.22735 -21.47862,0.30365 -1.49995,-5.63468 -2.22621,-38.35011 -2.24344,-40.38458 -1.57585,-1.36056 -9.58983,-0.56318 -11.51821,0.75957 -0.51545,2.29849 3.78655,39.30077 -2.48187,41.9928 -4.6983,2.36539 -9.01968,3.76247 -18.15443,0.41977 -6.59143,-2.84682 -8.89956,-108.90167 -4.05401,-119.14369 1.98479,-4.52654 19.45758,-4.68836 22.51493,-1.28 z"
       sodipodi:nodetypes="ccsccsccccccc" />
  </g>
  <g
     style="display:inline">
    <path
       style="display:inline;fill:#41d27a;stroke:#000000;stroke-width:4;stroke-linecap:butt;stroke-linejoin:miter;stroke-miterlimit:4;stroke-dasharray:none;stroke-opacity:1;fill-opacity:1"
       d="m 710.65574,478.43351 c 3.59513,-9.41527 18.37627,-8.84847 21.00129,0.61929 2.62502,9.46776 5.70882,116.31321 -9.0084,116.00582 -8.02473,-0.36275 -9.87753,-1.24373 -13.81794,-12.3164 -3.21707,-9.04006 -5.34344,-85.5352 1.82505,-104.30871 z"
       sodipodi:nodetypes="sscss" />
  </g>
  <g
     style="display:inline">
    <path
       style="display:inline;fill:#41d27a;stroke:#000000;stroke-width:4.11879683;stroke-linecap:butt;stroke-linejoin:miter;stroke-miterlimit:4;stroke-dasharray:none;stroke-opacity:1;fill-opacity:1"
       d="m 538.62037,491.24494 c 33.33864,-21.39775 26.54035,15.6583 32.65629,38.08395 6.13877,-26.75719 4.40356,-45.80164 14.28037,-48.62523 6.60055,-1.88696 14.89368,-0.29574 16.54224,3.97782 2.78671,7.22407 -1.46171,19.27247 -11.21168,55.74818 l 27.89513,36.60214 c 4.09075,5.52041 -13.09422,27.91476 -22.21422,20.3482 -8.57468,-5.51342 -15.4696,-26.26308 -21.13772,-39.26149 l 7.85847,37.52711 c -5.3817,7.83775 -20.64094,10.57484 -27.13767,4.50913 -8.50792,-11.82004 -16.49331,-51.32665 -19.6067,-75.55207 -2.47032,-19.22187 -7.4155,-22.53189 2.07549,-33.35774 z"
       sodipodi:nodetypes="ccssccccccsc" />
  </g>
  <g
     style="display:inline">
    <path
       style="display:inline;fill:#41d27a;stroke:#000000;stroke-width:4;stroke-linecap:butt;stroke-linejoin:miter;stroke-miterlimit:4;stroke-dasharray:none;stroke-opacity:1;fill-opacity:1"
       d="m 608.84397,485.67562 c 3.59797,-10.39625 17.38978,-11.25967 21.1856,0.27174 3.79582,11.53141 10.21903,113.44647 -4.49821,113.75406 -8.03287,-0.0272 -9.83731,1.16824 -14.23685,-9.73015 -3.59191,-8.89777 -6.04851,-93.8994 -2.45054,-104.29565 z"
       sodipodi:nodetypes="zzcsz" />
  </g>
  <g
     style="display:inline">
    <path
       style="fill:#41d27a;stroke:#000000;stroke-width:4;stroke-linecap:butt;stroke-linejoin:round;stroke-miterlimit:4;stroke-dasharray:none;stroke-opacity:1;paint-order:markers fill stroke;fill-opacity:1"
       d="m 520.38461,525.22935 c -0.69927,1.48461 4.43429,14.98855 5.56724,17.39646 0.80696,1.71506 19.93177,-5.92954 20.7641,-3.93053 0.52323,1.70836 4.50588,14.29908 4.35944,16.78955 -0.039,1.14394 -19.91312,6.30779 -20.05407,7.35276 0.54538,0.97359 4.64161,15.87161 5.3745,17.3533 0.69241,1.96955 17.04912,-6.79376 19.30763,-4.46498 2.34279,1.69035 7.43532,21.20204 7.38324,22.62073 0.0571,2.98182 -35.01453,13.43295 -39.19871,12.03383 -4.15034,-2.14619 -34.53254,-103.50773 -33.42567,-108.79538 14.85968,-7.61962 43.83924,-13.7174 45.2728,-12.18915 1.33349,1.42157 7.97489,25.29687 7.99086,27.3849 0.0158,2.06646 -22.93837,6.88264 -23.34136,8.44851 z"
       sodipodi:nodetypes="csccccccccssc" />
  </g>
  <g
     style="display:inline">
    <path
       style="display:inline;fill:#41d27a;stroke:#000000;stroke-width:4;stroke-linecap:butt;stroke-linejoin:miter;stroke-miterlimit:4;stroke-dasharray:none;stroke-opacity:1;fill-opacity:1"
       d="m 413.00705,521.92854 c 3.47995,-17.62201 16.51071,-11.87357 20.4494,-4.82281 4.8284,10.91729 34.50704,107.03325 20.20924,110.53527 -7.84639,1.72102 -9.34756,3.28034 -16.01264,-6.39992 -5.44157,-7.90325 -26.73977,-79.32634 -24.646,-99.31254 z"
       sodipodi:nodetypes="cccsc" />
  </g>
  <g
     style="display:inline">
    <path
       style="fill:#41d27a;stroke:#000000;stroke-width:4;stroke-linecap:butt;stroke-linejoin:round;stroke-miterlimit:4;stroke-dasharray:none;stroke-opacity:1;fill-opacity:1"
       d="m 474.64542,545.84639 c -0.84799,-23.05451 -1.15548,-37.05714 1.05225,-44.26551 0.41147,-1.34346 6.60157,-4.4488 13.6285,-2.93863 7.29601,1.568 30.98953,103.22525 29.11178,108.3652 -2.53671,6.17738 -15.9248,7.48409 -17.96842,4.93166 -1.50469,-1.87932 -10.02313,-40.01772 -11.68197,-50.00605 -0.30909,12.98607 1.31824,27.58023 -0.49127,28.32257 -8.98102,3.68442 -5.04173,0.78342 -17.53995,-22.48894 2.89071,16.27279 11.08818,40.14579 11.43715,49.82747 0.17374,4.82002 -7.22594,5.62918 -9.10359,6.27556 -15.93312,5.48496 -14.62771,-12.95402 -20.51674,-36.1432 -6.47568,-26.06337 -13.45542,-60.36668 -13.99835,-64.8614 -1.65359,-13.6896 -1.61881,-16.02596 9.23739,-18.03213 10.74802,-1.98618 13.79319,15.51975 26.83322,41.0134 z"
       sodipodi:nodetypes="csscscscsscssc" />
  </g>
  <g
     style="display:inline">
    <path
       style="display:inline;fill:#41d27a;stroke:#000000;stroke-width:4;stroke-linecap:butt;stroke-linejoin:miter;stroke-miterlimit:4;stroke-dasharray:none;stroke-opacity:1;fill-opacity:1"
       d="m 357.93581,532.48923 c 26.94543,-25.56504 26.41277,13.09015 35.35534,35.35533 1.49848,-28.04752 -2.96351,-47.33714 5.55288,-51.31474 5.69137,-2.65817 13.44355,-1.94512 15.58518,2.24459 3.62023,7.08232 1.60129,19.87545 -1.69262,58.26254 l 30.81849,34.36465 c 4.54265,5.19578 -7.62197,29.99873 -17.02991,23.26455 -8.60245,-4.69411 -17.99611,-25.15897 -25.10229,-37.83021 l 12.81272,37.52062 c -3.68435,8.61094 -17.08844,13.09366 -23.89281,7.60542 -9.49919,-11.15266 -22.72728,-50.68415 -29.22374,-75.12149 -5.15468,-19.39002 -10.13565,-22.23053 -3.18324,-34.35126 z"
       sodipodi:nodetypes="ccssccccccsc" />
  </g>
  <g
     style="display:inline">
    <path
       style="fill:#41d27a;stroke:#000000;stroke-width:4;stroke-linecap:butt;stroke-linejoin:miter;stroke-miterlimit:4;stroke-dasharray:none;stroke-opacity:1;fill-opacity:1"
       d="m 348.25009,540.36631 c 20.71974,13.13585 42.42876,71.25399 42.07285,92.63099 -2.91296,28.63888 -28.29627,31.59076 -38.96796,14.12106 -13.1808,-21.57716 -35.96474,-70.88987 -32.54814,-91.0736 3.25383,-16.22371 16.52062,-27.6907 29.44325,-15.67845 z"
         sodipodi:nodetypes="ccscc" />
    <path
       style="fill:none;stroke:#000000;stroke-width:4;stroke-linecap:round;stroke-linejoin:round;stroke-miterlimit:4;stroke-dasharray:none;stroke-opacity:1"
       d="m 344.361,571.479 18.38478,45.25484 3.18198,-2.12132 z"
       sodipodi:nodetypes="cccc" />
  </g>
  <g
     style="display:inline">
    <path
       style="fill:#41d27a;fill-opacity:1;stroke:#000000;stroke-width:4;stroke-linecap:butt;stroke-linejoin:round;stroke-miterlimit:4;stroke-dasharray:none;stroke-opacity:1"
       d="m 303.37127,548.51565 c 13.37854,-0.76802 13.97764,8.55043 18.08622,15.55506 4.90184,16.21917 1.06501,16.60727 -11.41126,25.98826 11.88926,22.73149 33.66726,62.49426 34.43152,71.02821 -1.12303,9.51292 -8.95314,14.78305 -17.5974,14.8935 -3.31993,-0.0281 -5.00321,-4.00125 -8.4761,-10.21811 -8.82916,-15.80516 -19.56732,-46.11227 -26.88371,-62.96627 -0.62595,-1.44193 -0.20882,-2.90392 -0.87343,-4.39018 -1.23102,1.38082 -3.98398,2.85354 -6.82737,4.05216 -2.26977,0.95681 -5.27303,1.73895 -9.36067,2.16026 -8.48664,0.73795 -15.20047,-17.96437 -14.93163,-27.0665 3.36372,-14.66577 33.50463,-27.09071 43.84383,-29.03639 z"
       sodipodi:nodetypes="cccccsscsccc" />
  </g>
</svg>
